<?xml version="1.0" encoding="utf-8"?>
<!-- Generator: Adobe Illustrator 19.2.1, SVG Export Plug-In . SVG Version: 6.00 Build 0)  -->
<svg version="1.1" id="Laag_1" xmlns="http://www.w3.org/2000/svg" xmlns:xlink="http://www.w3.org/1999/xlink" x="0px" y="0px"
	 viewBox="0 0 682.4 627.1" style="enable-background:new 0 0 682.4 627.1;" xml:space="preserve">
<style type="text/css">
	.st0{fill:#C9C9C9;}
</style>
<path class="st0" d="M650.7,116.5H31.7C14.2,116.5,0,102.2,0,84.8V43.4C0,26,14.2,11.8,31.7,11.8h619.1c17.4,0,31.7,14.2,31.7,31.7
	v41.4C682.4,102.2,668.1,116.5,650.7,116.5z"/>
<path class="st0" d="M650.9,348.2H31.5C14.2,348.2,0,334.1,0,316.8V275c0-17.3,14.2-31.5,31.5-31.5h619.4
	c17.3,0,31.5,14.2,31.5,31.5v41.8C682.4,334.1,668.2,348.2,650.9,348.2z"/>
<path class="st0" d="M651.2,580H31.1C14,580,0,566,0,548.9v-42.5c0-17.1,14-31.1,31.1-31.1h620.1c17.1,0,31.1,14,31.1,31.1v42.5
	C682.4,566,668.3,580,651.2,580z"/>
</svg>
